G04 MADE WITH FRITZING*
G04 WWW.FRITZING.ORG*
G04 DOUBLE SIDED*
G04 HOLES PLATED*
G04 CONTOUR ON CENTER OF CONTOUR VECTOR*
%ASAXBY*%
%FSLAX23Y23*%
%MOIN*%
%OFA0B0*%
%SFA1.0B1.0*%
%ADD10C,0.076889*%
%ADD11C,0.148425*%
%ADD12C,0.080000*%
%ADD13C,0.076000*%
%ADD14C,0.045748*%
%ADD15C,0.148426*%
%ADD16C,0.067402*%
%ADD17C,0.057559*%
%ADD18C,0.108426*%
%ADD19C,0.096000*%
%ADD20C,0.049370*%
%ADD21C,0.088000*%
%ADD22R,0.076000X0.076000*%
%ADD23R,0.108426X0.108425*%
%ADD24R,0.088000X0.088000*%
%ADD25R,0.001000X0.001000*%
%LNMASK1*%
G90*
G70*
G54D10*
X674Y691D03*
X674Y791D03*
X674Y891D03*
X674Y991D03*
X674Y1091D03*
X674Y1191D03*
X674Y1291D03*
X674Y1391D03*
X674Y1491D03*
X674Y1591D03*
X674Y1691D03*
X674Y1791D03*
X674Y1891D03*
X674Y1991D03*
X560Y1891D03*
X560Y1591D03*
X560Y1691D03*
X74Y691D03*
X74Y791D03*
X74Y891D03*
X74Y991D03*
X74Y1091D03*
X74Y1191D03*
X74Y1291D03*
X74Y1391D03*
X74Y1491D03*
X74Y1591D03*
X74Y1691D03*
X74Y1791D03*
X74Y1891D03*
X74Y1991D03*
X560Y1491D03*
X274Y691D03*
X174Y691D03*
X374Y691D03*
X574Y691D03*
X474Y691D03*
G54D11*
X1928Y1225D03*
X1928Y2025D03*
G54D12*
X2228Y2025D03*
X2328Y2025D03*
X2428Y2025D03*
G54D11*
X3228Y1225D03*
G54D12*
X2528Y2025D03*
G54D11*
X3228Y2025D03*
G54D12*
X2628Y2025D03*
X2728Y2025D03*
X2128Y1225D03*
X2228Y1225D03*
X2328Y1225D03*
X2428Y1225D03*
X2528Y1225D03*
X2628Y1225D03*
X2728Y1225D03*
X2828Y1225D03*
X2928Y1225D03*
G54D13*
X1036Y330D03*
X1036Y430D03*
X1036Y530D03*
X1036Y630D03*
X1036Y730D03*
X1036Y830D03*
X1036Y930D03*
X1036Y1030D03*
X1036Y1130D03*
X1036Y1230D03*
X1036Y1330D03*
X1036Y1430D03*
X1036Y1530D03*
G54D12*
X1636Y1230D03*
X1636Y1130D03*
X1636Y1030D03*
X1636Y930D03*
X1636Y830D03*
X1636Y730D03*
X1636Y630D03*
X847Y316D03*
X747Y316D03*
X647Y316D03*
X547Y316D03*
X447Y316D03*
X347Y316D03*
X247Y316D03*
G54D14*
X2402Y547D03*
G54D15*
X3222Y113D03*
G54D16*
X2094Y313D03*
X2094Y589D03*
G54D14*
X2367Y512D03*
X2331Y476D03*
G54D17*
X3117Y333D03*
X3117Y593D03*
G54D18*
X3227Y322D03*
X3227Y605D03*
G54D19*
X1987Y518D03*
G54D13*
X2817Y863D03*
X2717Y863D03*
X2617Y863D03*
X2517Y863D03*
X2417Y863D03*
X2317Y863D03*
X2217Y863D03*
G54D15*
X3222Y813D03*
G54D13*
X2117Y863D03*
G54D14*
X2331Y547D03*
X2402Y476D03*
G54D19*
X1987Y380D03*
G54D20*
X802Y1438D03*
X795Y1549D03*
G54D21*
X2546Y1030D03*
X2646Y1030D03*
X2746Y1030D03*
G54D22*
X1036Y330D03*
G54D23*
X3227Y322D03*
X3227Y605D03*
G54D24*
X2546Y1030D03*
G54D25*
X3092Y636D02*
X3138Y636D01*
X3092Y635D02*
X3139Y635D01*
X3092Y634D02*
X3139Y634D01*
X3092Y633D02*
X3139Y633D01*
X3092Y632D02*
X3139Y632D01*
X3092Y631D02*
X3139Y631D01*
X3092Y630D02*
X3139Y630D01*
X3092Y629D02*
X3139Y629D01*
X3092Y628D02*
X3139Y628D01*
X3092Y627D02*
X3139Y627D01*
X3092Y626D02*
X3139Y626D01*
X3092Y625D02*
X3139Y625D01*
X3092Y624D02*
X3139Y624D01*
X3092Y623D02*
X3139Y623D01*
X3092Y622D02*
X3139Y622D01*
X3092Y621D02*
X3139Y621D01*
X3092Y620D02*
X3139Y620D01*
X3092Y619D02*
X3139Y619D01*
X2091Y618D02*
X2094Y618D01*
X3092Y618D02*
X3139Y618D01*
X2034Y617D02*
X2152Y617D01*
X3092Y617D02*
X3139Y617D01*
X2034Y616D02*
X2152Y616D01*
X3092Y616D02*
X3139Y616D01*
X2034Y615D02*
X2152Y615D01*
X3092Y615D02*
X3139Y615D01*
X2034Y614D02*
X2152Y614D01*
X3092Y614D02*
X3139Y614D01*
X2034Y613D02*
X2152Y613D01*
X3092Y613D02*
X3139Y613D01*
X2034Y612D02*
X2152Y612D01*
X3092Y612D02*
X3139Y612D01*
X2034Y611D02*
X2152Y611D01*
X3092Y611D02*
X3139Y611D01*
X2034Y610D02*
X2152Y610D01*
X3092Y610D02*
X3139Y610D01*
X2034Y609D02*
X2152Y609D01*
X3092Y609D02*
X3139Y609D01*
X2034Y608D02*
X2152Y608D01*
X3092Y608D02*
X3139Y608D01*
X2034Y607D02*
X2087Y607D01*
X2099Y607D02*
X2152Y607D01*
X3092Y607D02*
X3111Y607D01*
X3119Y607D02*
X3139Y607D01*
X2034Y606D02*
X2084Y606D01*
X2101Y606D02*
X2152Y606D01*
X3092Y606D02*
X3108Y606D01*
X3122Y606D02*
X3139Y606D01*
X2034Y605D02*
X2082Y605D01*
X2103Y605D02*
X2152Y605D01*
X3092Y605D02*
X3107Y605D01*
X3124Y605D02*
X3139Y605D01*
X2034Y604D02*
X2081Y604D01*
X2104Y604D02*
X2152Y604D01*
X3092Y604D02*
X3106Y604D01*
X3125Y604D02*
X3139Y604D01*
X2034Y603D02*
X2080Y603D01*
X2106Y603D02*
X2152Y603D01*
X3092Y603D02*
X3105Y603D01*
X3126Y603D02*
X3139Y603D01*
X2034Y602D02*
X2079Y602D01*
X2107Y602D02*
X2152Y602D01*
X3092Y602D02*
X3104Y602D01*
X3127Y602D02*
X3139Y602D01*
X2034Y601D02*
X2078Y601D01*
X2107Y601D02*
X2152Y601D01*
X3092Y601D02*
X3103Y601D01*
X3127Y601D02*
X3139Y601D01*
X2034Y600D02*
X2077Y600D01*
X2108Y600D02*
X2152Y600D01*
X3092Y600D02*
X3102Y600D01*
X3128Y600D02*
X3139Y600D01*
X2034Y599D02*
X2076Y599D01*
X2109Y599D02*
X2152Y599D01*
X3092Y599D02*
X3102Y599D01*
X3129Y599D02*
X3139Y599D01*
X2034Y598D02*
X2076Y598D01*
X2110Y598D02*
X2152Y598D01*
X3092Y598D02*
X3102Y598D01*
X3129Y598D02*
X3139Y598D01*
X2034Y597D02*
X2075Y597D01*
X2110Y597D02*
X2152Y597D01*
X3092Y597D02*
X3101Y597D01*
X3129Y597D02*
X3139Y597D01*
X2034Y596D02*
X2075Y596D01*
X2111Y596D02*
X2152Y596D01*
X3092Y596D02*
X3101Y596D01*
X3129Y596D02*
X3139Y596D01*
X2034Y595D02*
X2074Y595D01*
X2111Y595D02*
X2152Y595D01*
X3092Y595D02*
X3101Y595D01*
X3129Y595D02*
X3139Y595D01*
X2034Y594D02*
X2074Y594D01*
X2111Y594D02*
X2152Y594D01*
X3092Y594D02*
X3101Y594D01*
X3129Y594D02*
X3139Y594D01*
X2034Y593D02*
X2074Y593D01*
X2111Y593D02*
X2152Y593D01*
X3092Y593D02*
X3101Y593D01*
X3129Y593D02*
X3139Y593D01*
X2034Y592D02*
X2074Y592D01*
X2112Y592D02*
X2152Y592D01*
X3092Y592D02*
X3101Y592D01*
X3129Y592D02*
X3139Y592D01*
X2034Y591D02*
X2074Y591D01*
X2112Y591D02*
X2152Y591D01*
X3092Y591D02*
X3101Y591D01*
X3129Y591D02*
X3139Y591D01*
X2034Y590D02*
X2074Y590D01*
X2112Y590D02*
X2152Y590D01*
X3092Y590D02*
X3101Y590D01*
X3129Y590D02*
X3139Y590D01*
X2034Y589D02*
X2074Y589D01*
X2112Y589D02*
X2152Y589D01*
X3092Y589D02*
X3102Y589D01*
X3129Y589D02*
X3139Y589D01*
X2034Y588D02*
X2074Y588D01*
X2112Y588D02*
X2152Y588D01*
X3092Y588D02*
X3102Y588D01*
X3128Y588D02*
X3139Y588D01*
X2034Y587D02*
X2074Y587D01*
X2112Y587D02*
X2152Y587D01*
X3092Y587D02*
X3103Y587D01*
X3128Y587D02*
X3139Y587D01*
X2034Y586D02*
X2074Y586D01*
X2112Y586D02*
X2152Y586D01*
X3092Y586D02*
X3103Y586D01*
X3127Y586D02*
X3139Y586D01*
X2034Y585D02*
X2074Y585D01*
X2111Y585D02*
X2152Y585D01*
X3092Y585D02*
X3104Y585D01*
X3126Y585D02*
X3139Y585D01*
X2034Y584D02*
X2074Y584D01*
X2111Y584D02*
X2152Y584D01*
X3092Y584D02*
X3105Y584D01*
X3125Y584D02*
X3139Y584D01*
X2034Y583D02*
X2075Y583D01*
X2111Y583D02*
X2152Y583D01*
X3092Y583D02*
X3106Y583D01*
X3124Y583D02*
X3139Y583D01*
X2034Y582D02*
X2075Y582D01*
X2111Y582D02*
X2152Y582D01*
X3092Y582D02*
X3107Y582D01*
X3123Y582D02*
X3139Y582D01*
X2034Y581D02*
X2075Y581D01*
X2110Y581D02*
X2152Y581D01*
X3092Y581D02*
X3109Y581D01*
X3121Y581D02*
X3139Y581D01*
X2034Y580D02*
X2076Y580D01*
X2109Y580D02*
X2152Y580D01*
X3092Y580D02*
X3139Y580D01*
X2034Y579D02*
X2076Y579D01*
X2109Y579D02*
X2152Y579D01*
X3092Y579D02*
X3139Y579D01*
X2034Y578D02*
X2077Y578D01*
X2108Y578D02*
X2152Y578D01*
X3092Y578D02*
X3139Y578D01*
X2034Y577D02*
X2078Y577D01*
X2107Y577D02*
X2152Y577D01*
X3092Y577D02*
X3139Y577D01*
X2034Y576D02*
X2079Y576D01*
X2106Y576D02*
X2152Y576D01*
X3092Y576D02*
X3139Y576D01*
X2034Y575D02*
X2080Y575D01*
X2105Y575D02*
X2152Y575D01*
X3092Y575D02*
X3139Y575D01*
X2034Y574D02*
X2081Y574D01*
X2104Y574D02*
X2152Y574D01*
X3092Y574D02*
X3139Y574D01*
X2034Y573D02*
X2083Y573D01*
X2103Y573D02*
X2152Y573D01*
X3092Y573D02*
X3139Y573D01*
X2034Y572D02*
X2084Y572D01*
X2101Y572D02*
X2152Y572D01*
X3092Y572D02*
X3139Y572D01*
X2034Y571D02*
X2087Y571D01*
X2098Y571D02*
X2152Y571D01*
X3092Y571D02*
X3139Y571D01*
X2034Y570D02*
X2152Y570D01*
X3092Y570D02*
X3138Y570D01*
X2034Y569D02*
X2152Y569D01*
X2034Y568D02*
X2152Y568D01*
X2034Y567D02*
X2152Y567D01*
X2034Y566D02*
X2152Y566D01*
X2034Y565D02*
X2152Y565D01*
X2034Y564D02*
X2152Y564D01*
X2034Y563D02*
X2152Y563D01*
X2034Y562D02*
X2152Y562D01*
X2034Y561D02*
X2152Y561D01*
X3092Y357D02*
X3139Y357D01*
X3092Y356D02*
X3139Y356D01*
X3092Y355D02*
X3139Y355D01*
X3092Y354D02*
X3139Y354D01*
X3092Y353D02*
X3139Y353D01*
X3092Y352D02*
X3139Y352D01*
X3092Y351D02*
X3139Y351D01*
X3092Y350D02*
X3139Y350D01*
X3092Y349D02*
X3139Y349D01*
X3092Y348D02*
X3139Y348D01*
X3092Y347D02*
X3110Y347D01*
X3120Y347D02*
X3139Y347D01*
X3092Y346D02*
X3108Y346D01*
X3122Y346D02*
X3139Y346D01*
X3092Y345D02*
X3107Y345D01*
X3124Y345D02*
X3139Y345D01*
X3092Y344D02*
X3105Y344D01*
X3125Y344D02*
X3139Y344D01*
X3092Y343D02*
X3104Y343D01*
X3126Y343D02*
X3139Y343D01*
X2034Y342D02*
X2151Y342D01*
X3092Y342D02*
X3104Y342D01*
X3127Y342D02*
X3139Y342D01*
X2034Y341D02*
X2152Y341D01*
X3092Y341D02*
X3103Y341D01*
X3128Y341D02*
X3139Y341D01*
X2034Y340D02*
X2152Y340D01*
X3092Y340D02*
X3102Y340D01*
X3128Y340D02*
X3139Y340D01*
X2034Y339D02*
X2152Y339D01*
X3092Y339D02*
X3102Y339D01*
X3129Y339D02*
X3139Y339D01*
X2034Y338D02*
X2152Y338D01*
X3092Y338D02*
X3102Y338D01*
X3129Y338D02*
X3139Y338D01*
X2034Y337D02*
X2152Y337D01*
X3092Y337D02*
X3101Y337D01*
X3129Y337D02*
X3139Y337D01*
X2034Y336D02*
X2152Y336D01*
X3092Y336D02*
X3101Y336D01*
X3129Y336D02*
X3139Y336D01*
X2034Y335D02*
X2152Y335D01*
X3092Y335D02*
X3101Y335D01*
X3129Y335D02*
X3139Y335D01*
X2034Y334D02*
X2152Y334D01*
X3092Y334D02*
X3101Y334D01*
X3129Y334D02*
X3139Y334D01*
X2034Y333D02*
X2152Y333D01*
X3092Y333D02*
X3101Y333D01*
X3129Y333D02*
X3139Y333D01*
X2034Y332D02*
X2152Y332D01*
X3092Y332D02*
X3101Y332D01*
X3129Y332D02*
X3139Y332D01*
X2034Y331D02*
X2085Y331D01*
X2100Y331D02*
X2152Y331D01*
X3092Y331D02*
X3101Y331D01*
X3129Y331D02*
X3139Y331D01*
X2034Y330D02*
X2083Y330D01*
X2102Y330D02*
X2152Y330D01*
X3092Y330D02*
X3102Y330D01*
X3129Y330D02*
X3139Y330D01*
X2034Y329D02*
X2082Y329D01*
X2104Y329D02*
X2152Y329D01*
X3092Y329D02*
X3102Y329D01*
X3129Y329D02*
X3139Y329D01*
X2034Y328D02*
X2080Y328D01*
X2105Y328D02*
X2152Y328D01*
X3092Y328D02*
X3102Y328D01*
X3128Y328D02*
X3139Y328D01*
X2034Y327D02*
X2079Y327D01*
X2106Y327D02*
X2152Y327D01*
X3092Y327D02*
X3103Y327D01*
X3128Y327D02*
X3139Y327D01*
X2034Y326D02*
X2078Y326D01*
X2107Y326D02*
X2152Y326D01*
X3092Y326D02*
X3103Y326D01*
X3127Y326D02*
X3139Y326D01*
X2034Y325D02*
X2077Y325D01*
X2108Y325D02*
X2152Y325D01*
X3092Y325D02*
X3104Y325D01*
X3126Y325D02*
X3139Y325D01*
X2034Y324D02*
X2077Y324D01*
X2109Y324D02*
X2152Y324D01*
X3092Y324D02*
X3105Y324D01*
X3125Y324D02*
X3139Y324D01*
X2034Y323D02*
X2076Y323D01*
X2109Y323D02*
X2152Y323D01*
X3092Y323D02*
X3106Y323D01*
X3124Y323D02*
X3139Y323D01*
X2034Y322D02*
X2076Y322D01*
X2110Y322D02*
X2152Y322D01*
X3092Y322D02*
X3108Y322D01*
X3123Y322D02*
X3139Y322D01*
X2034Y321D02*
X2075Y321D01*
X2110Y321D02*
X2152Y321D01*
X3092Y321D02*
X3110Y321D01*
X3121Y321D02*
X3139Y321D01*
X2034Y320D02*
X2075Y320D01*
X2111Y320D02*
X2152Y320D01*
X3092Y320D02*
X3139Y320D01*
X2034Y319D02*
X2074Y319D01*
X2111Y319D02*
X2152Y319D01*
X3092Y319D02*
X3139Y319D01*
X2034Y318D02*
X2074Y318D01*
X2111Y318D02*
X2152Y318D01*
X3092Y318D02*
X3139Y318D01*
X2034Y317D02*
X2074Y317D01*
X2112Y317D02*
X2152Y317D01*
X3092Y317D02*
X3139Y317D01*
X2034Y316D02*
X2074Y316D01*
X2112Y316D02*
X2152Y316D01*
X3092Y316D02*
X3139Y316D01*
X2034Y315D02*
X2074Y315D01*
X2112Y315D02*
X2152Y315D01*
X3092Y315D02*
X3139Y315D01*
X2034Y314D02*
X2074Y314D01*
X2112Y314D02*
X2152Y314D01*
X3092Y314D02*
X3139Y314D01*
X2034Y313D02*
X2074Y313D01*
X2112Y313D02*
X2152Y313D01*
X3092Y313D02*
X3139Y313D01*
X2034Y312D02*
X2074Y312D01*
X2112Y312D02*
X2152Y312D01*
X3092Y312D02*
X3139Y312D01*
X2034Y311D02*
X2074Y311D01*
X2112Y311D02*
X2152Y311D01*
X3092Y311D02*
X3139Y311D01*
X2034Y310D02*
X2074Y310D01*
X2112Y310D02*
X2152Y310D01*
X3092Y310D02*
X3139Y310D01*
X2034Y309D02*
X2074Y309D01*
X2111Y309D02*
X2152Y309D01*
X3092Y309D02*
X3139Y309D01*
X2034Y308D02*
X2074Y308D01*
X2111Y308D02*
X2152Y308D01*
X3092Y308D02*
X3139Y308D01*
X2034Y307D02*
X2075Y307D01*
X2111Y307D02*
X2152Y307D01*
X3092Y307D02*
X3139Y307D01*
X2034Y306D02*
X2075Y306D01*
X2110Y306D02*
X2152Y306D01*
X3092Y306D02*
X3139Y306D01*
X2034Y305D02*
X2076Y305D01*
X2110Y305D02*
X2152Y305D01*
X3092Y305D02*
X3139Y305D01*
X2034Y304D02*
X2076Y304D01*
X2109Y304D02*
X2152Y304D01*
X3092Y304D02*
X3139Y304D01*
X2034Y303D02*
X2077Y303D01*
X2109Y303D02*
X2152Y303D01*
X3092Y303D02*
X3139Y303D01*
X2034Y302D02*
X2078Y302D01*
X2108Y302D02*
X2152Y302D01*
X3092Y302D02*
X3139Y302D01*
X2034Y301D02*
X2078Y301D01*
X2107Y301D02*
X2152Y301D01*
X3092Y301D02*
X3139Y301D01*
X2034Y300D02*
X2079Y300D01*
X2106Y300D02*
X2152Y300D01*
X3092Y300D02*
X3139Y300D01*
X2034Y299D02*
X2080Y299D01*
X2105Y299D02*
X2152Y299D01*
X3092Y299D02*
X3139Y299D01*
X2034Y298D02*
X2082Y298D01*
X2104Y298D02*
X2152Y298D01*
X3092Y298D02*
X3139Y298D01*
X2034Y297D02*
X2083Y297D01*
X2102Y297D02*
X2152Y297D01*
X3092Y297D02*
X3139Y297D01*
X2034Y296D02*
X2086Y296D01*
X2100Y296D02*
X2152Y296D01*
X3092Y296D02*
X3139Y296D01*
X2034Y295D02*
X2152Y295D01*
X3092Y295D02*
X3139Y295D01*
X2034Y294D02*
X2152Y294D01*
X3092Y294D02*
X3139Y294D01*
X2034Y293D02*
X2152Y293D01*
X3092Y293D02*
X3139Y293D01*
X2034Y292D02*
X2152Y292D01*
X3092Y292D02*
X3139Y292D01*
X2034Y291D02*
X2152Y291D01*
X2034Y290D02*
X2152Y290D01*
X2034Y289D02*
X2152Y289D01*
X2034Y288D02*
X2152Y288D01*
X2034Y287D02*
X2152Y287D01*
X2034Y286D02*
X2152Y286D01*
X2034Y285D02*
X2151Y285D01*
D02*
G04 End of Mask1*
M02*