; NON-PLATED HOLES START AT T1
; THROUGH (PLATED) HOLES START AT T100
M48
INCH
T100C0.098426
T101C0.037402
T102C0.027559
T103C0.038000
T104C0.023622
T105C0.039370
T106C0.098425
T107C0.039111
T108C0.015748
%
T100
X032220Y008133
X032220Y001133
T101
X020937Y003130
X020937Y005886
T102
X031166Y003333
X031166Y005932
T103
X027462Y010303
X025462Y010303
X026462Y010303
T104
X032268Y003215
X032268Y006050
T105
X022276Y020251
X023170Y008633
X006465Y003161
X010361Y004297
X010361Y007297
X027276Y020251
X021276Y012251
X002465Y003161
X025276Y012251
X024170Y008633
X016361Y012297
X010361Y005297
X010361Y008297
X019870Y003799
X026276Y012251
X019870Y005177
X004465Y003161
X025276Y020251
X024276Y020251
X016361Y010297
X023276Y020251
X007465Y003161
X016361Y008297
X005465Y003161
X010361Y011297
X016361Y006297
X010361Y012297
X021170Y008633
X010361Y013297
X026276Y020251
X010361Y014297
X016361Y011297
X010361Y006297
X027170Y008633
X029276Y012251
X028170Y008633
X027276Y012251
X026170Y008633
X010361Y010297
X022170Y008633
X024276Y012251
X010361Y009297
X010361Y015297
X028276Y012251
X023276Y012251
X022276Y012251
X010361Y003297
X016361Y007297
X008465Y003161
X025170Y008633
X016361Y009297
X003465Y003161
T106
X019276Y020251
X019276Y012251
X032276Y012251
X032276Y020251
T107
X000741Y013907
X002741Y006907
X006741Y018907
X000741Y007907
X000741Y010907
X000741Y019907
X000741Y006907
X006741Y011907
X000741Y017907
X006741Y019907
X006741Y016907
X005741Y006907
X000741Y011907
X006741Y014907
X005598Y015906
X006741Y013907
X000741Y012907
X004741Y006907
X005598Y016907
X000741Y014907
X001741Y006907
X000741Y015907
X006741Y008907
X006741Y010907
X000741Y008907
X006741Y009907
X000741Y009907
X005598Y018907
X000741Y016907
X006741Y007907
X003741Y006907
X005598Y014906
X006741Y017907
X006741Y015907
X000741Y018907
X006741Y006907
X006741Y012907
T108
X024019Y005469
X024019Y004760
X023310Y005469
X008021Y014380
X023665Y005115
X007947Y015490
X023310Y004760
T00
M30
