G04 MADE WITH FRITZING*
G04 WWW.FRITZING.ORG*
G04 DOUBLE SIDED*
G04 HOLES PLATED*
G04 CONTOUR ON CENTER OF CONTOUR VECTOR*
%ASAXBY*%
%FSLAX23Y23*%
%MOIN*%
%OFA0B0*%
%SFA1.0B1.0*%
%ADD10C,0.066889*%
%ADD11C,0.138425*%
%ADD12C,0.070000*%
%ADD13C,0.066000*%
%ADD14C,0.035748*%
%ADD15C,0.138426*%
%ADD16C,0.057402*%
%ADD17C,0.047559*%
%ADD18C,0.098426*%
%ADD19C,0.086000*%
%ADD20C,0.039370*%
%ADD21C,0.078000*%
%ADD22R,0.066000X0.066000*%
%ADD23R,0.098426X0.098425*%
%ADD24R,0.078000X0.078000*%
%ADD25C,0.024000*%
%ADD26R,0.001000X0.001000*%
%LNCOPPER1*%
G90*
G70*
G54D10*
X674Y691D03*
X674Y791D03*
X674Y891D03*
X674Y991D03*
X674Y1091D03*
X674Y1191D03*
X674Y1291D03*
X674Y1391D03*
X674Y1491D03*
X674Y1591D03*
X674Y1691D03*
X674Y1791D03*
X674Y1891D03*
X674Y1991D03*
X560Y1891D03*
X560Y1591D03*
X560Y1691D03*
X74Y691D03*
X74Y791D03*
X74Y891D03*
X74Y991D03*
X74Y1091D03*
X74Y1191D03*
X74Y1291D03*
X74Y1391D03*
X74Y1491D03*
X74Y1591D03*
X74Y1691D03*
X74Y1791D03*
X74Y1891D03*
X74Y1991D03*
X560Y1491D03*
X274Y691D03*
X174Y691D03*
X374Y691D03*
X574Y691D03*
X474Y691D03*
G54D11*
X1928Y1225D03*
X1928Y2025D03*
G54D12*
X2228Y2025D03*
X2328Y2025D03*
X2428Y2025D03*
G54D11*
X3228Y1225D03*
G54D12*
X2528Y2025D03*
G54D11*
X3228Y2025D03*
G54D12*
X2628Y2025D03*
X2728Y2025D03*
X2128Y1225D03*
X2228Y1225D03*
X2328Y1225D03*
X2428Y1225D03*
X2528Y1225D03*
X2628Y1225D03*
X2728Y1225D03*
X2828Y1225D03*
X2928Y1225D03*
G54D13*
X1036Y330D03*
X1036Y430D03*
X1036Y530D03*
X1036Y630D03*
X1036Y730D03*
X1036Y830D03*
X1036Y930D03*
X1036Y1030D03*
X1036Y1130D03*
X1036Y1230D03*
X1036Y1330D03*
X1036Y1430D03*
X1036Y1530D03*
G54D12*
X1636Y1230D03*
X1636Y1130D03*
X1636Y1030D03*
X1636Y930D03*
X1636Y830D03*
X1636Y730D03*
X1636Y630D03*
X847Y316D03*
X747Y316D03*
X647Y316D03*
X547Y316D03*
X447Y316D03*
X347Y316D03*
X247Y316D03*
G54D14*
X2402Y547D03*
G54D15*
X3222Y113D03*
G54D16*
X2094Y313D03*
X2094Y589D03*
G54D14*
X2367Y512D03*
X2331Y476D03*
G54D17*
X3117Y333D03*
X3117Y593D03*
G54D18*
X3227Y322D03*
X3227Y605D03*
G54D19*
X1987Y518D03*
G54D13*
X2817Y863D03*
X2717Y863D03*
X2617Y863D03*
X2517Y863D03*
X2417Y863D03*
X2317Y863D03*
X2217Y863D03*
G54D15*
X3222Y813D03*
G54D13*
X2117Y863D03*
G54D14*
X2331Y547D03*
X2402Y476D03*
G54D19*
X1987Y380D03*
G54D20*
X802Y1438D03*
X795Y1549D03*
G54D21*
X2546Y1030D03*
X2646Y1030D03*
X2746Y1030D03*
G54D22*
X1036Y330D03*
G54D23*
X3227Y322D03*
X3227Y605D03*
G54D24*
X2546Y1030D03*
G54D25*
X2335Y1195D02*
X2410Y893D01*
D02*
X1838Y787D02*
X2293Y743D01*
D02*
X2293Y743D02*
X2395Y842D01*
D02*
X1656Y1006D02*
X1838Y787D01*
D02*
X1612Y1049D02*
X1060Y1510D01*
D02*
X943Y1678D02*
X1020Y1556D01*
D02*
X884Y1764D02*
X943Y1678D01*
D02*
X700Y1875D02*
X884Y1764D01*
D02*
X325Y1730D02*
X214Y1305D01*
D02*
X506Y2045D02*
X325Y1730D01*
D02*
X2511Y1251D02*
X2411Y1401D01*
D02*
X214Y1305D02*
X98Y1210D01*
D02*
X850Y2097D02*
X506Y2045D01*
D02*
X2411Y1401D02*
X850Y2097D01*
D02*
X2127Y1194D02*
X2118Y894D01*
D02*
X1956Y1383D02*
X2105Y1246D01*
D02*
X702Y1978D02*
X1956Y1383D01*
D02*
X2093Y882D02*
X1661Y1211D01*
D02*
X565Y184D02*
X467Y293D01*
D02*
X1020Y173D02*
X565Y184D01*
D02*
X1615Y807D02*
X1020Y173D01*
D02*
X778Y1541D02*
X702Y1504D01*
D02*
X784Y1431D02*
X703Y1401D01*
D02*
X924Y728D02*
X884Y1630D01*
D02*
X884Y1630D02*
X698Y1772D01*
D02*
X852Y346D02*
X924Y728D01*
D02*
X2436Y888D02*
X2528Y1007D01*
D02*
X2539Y885D02*
X2611Y953D01*
D02*
X2611Y953D02*
X2634Y1003D01*
D02*
X747Y613D02*
X468Y338D01*
D02*
X769Y1083D02*
X747Y613D01*
D02*
X694Y1168D02*
X769Y1083D01*
D02*
X839Y587D02*
X569Y337D01*
D02*
X704Y1284D02*
X832Y1253D01*
D02*
X832Y1253D02*
X839Y587D01*
G54D26*
X3097Y631D02*
X3133Y631D01*
X3097Y630D02*
X3134Y630D01*
X3097Y629D02*
X3134Y629D01*
X3097Y628D02*
X3134Y628D01*
X3097Y627D02*
X3134Y627D01*
X3097Y626D02*
X3134Y626D01*
X3097Y625D02*
X3134Y625D01*
X3097Y624D02*
X3134Y624D01*
X3097Y623D02*
X3134Y623D01*
X3097Y622D02*
X3134Y622D01*
X3097Y621D02*
X3134Y621D01*
X3097Y620D02*
X3134Y620D01*
X3097Y619D02*
X3134Y619D01*
X3097Y618D02*
X3134Y618D01*
X3097Y617D02*
X3134Y617D01*
X3097Y616D02*
X3134Y616D01*
X3097Y615D02*
X3134Y615D01*
X3097Y614D02*
X3134Y614D01*
X3097Y613D02*
X3134Y613D01*
X2039Y612D02*
X2086Y612D01*
X2099Y612D02*
X2147Y612D01*
X3097Y612D02*
X3111Y612D01*
X3120Y612D02*
X3134Y612D01*
X2039Y611D02*
X2083Y611D01*
X2102Y611D02*
X2147Y611D01*
X3097Y611D02*
X3107Y611D01*
X3123Y611D02*
X3134Y611D01*
X2039Y610D02*
X2081Y610D01*
X2104Y610D02*
X2147Y610D01*
X3097Y610D02*
X3106Y610D01*
X3125Y610D02*
X3134Y610D01*
X2039Y609D02*
X2079Y609D01*
X2106Y609D02*
X2147Y609D01*
X3097Y609D02*
X3104Y609D01*
X3127Y609D02*
X3134Y609D01*
X2039Y608D02*
X2078Y608D01*
X2107Y608D02*
X2147Y608D01*
X3097Y608D02*
X3103Y608D01*
X3128Y608D02*
X3134Y608D01*
X2039Y607D02*
X2077Y607D01*
X2109Y607D02*
X2147Y607D01*
X3097Y607D02*
X3102Y607D01*
X3129Y607D02*
X3134Y607D01*
X2039Y606D02*
X2076Y606D01*
X2110Y606D02*
X2147Y606D01*
X3097Y606D02*
X3101Y606D01*
X3130Y606D02*
X3134Y606D01*
X2039Y605D02*
X2075Y605D01*
X2111Y605D02*
X2147Y605D01*
X3097Y605D02*
X3100Y605D01*
X3131Y605D02*
X3134Y605D01*
X2039Y604D02*
X2074Y604D01*
X2111Y604D02*
X2147Y604D01*
X3097Y604D02*
X3099Y604D01*
X3131Y604D02*
X3134Y604D01*
X2039Y603D02*
X2073Y603D01*
X2112Y603D02*
X2147Y603D01*
X3097Y603D02*
X3099Y603D01*
X3132Y603D02*
X3134Y603D01*
X2039Y602D02*
X2072Y602D01*
X2113Y602D02*
X2147Y602D01*
X3097Y602D02*
X3098Y602D01*
X3133Y602D02*
X3134Y602D01*
X2039Y601D02*
X2072Y601D01*
X2114Y601D02*
X2147Y601D01*
X3097Y601D02*
X3097Y601D01*
X3133Y601D02*
X3134Y601D01*
X2039Y600D02*
X2071Y600D01*
X2114Y600D02*
X2147Y600D01*
X3097Y600D02*
X3097Y600D01*
X3133Y600D02*
X3134Y600D01*
X2039Y599D02*
X2071Y599D01*
X2115Y599D02*
X2147Y599D01*
X3097Y599D02*
X3097Y599D01*
X3134Y599D02*
X3134Y599D01*
X2039Y598D02*
X2070Y598D01*
X2115Y598D02*
X2147Y598D01*
X3097Y598D02*
X3097Y598D01*
X2039Y597D02*
X2070Y597D01*
X2115Y597D02*
X2147Y597D01*
X2039Y596D02*
X2070Y596D01*
X2116Y596D02*
X2147Y596D01*
X2039Y595D02*
X2069Y595D01*
X2116Y595D02*
X2147Y595D01*
X2039Y594D02*
X2069Y594D01*
X2116Y594D02*
X2147Y594D01*
X2039Y593D02*
X2069Y593D01*
X2117Y593D02*
X2147Y593D01*
X2039Y592D02*
X2069Y592D01*
X2117Y592D02*
X2147Y592D01*
X2039Y591D02*
X2069Y591D01*
X2117Y591D02*
X2147Y591D01*
X2039Y590D02*
X2069Y590D01*
X2117Y590D02*
X2147Y590D01*
X2039Y589D02*
X2069Y589D01*
X2117Y589D02*
X2147Y589D01*
X3097Y589D02*
X3097Y589D01*
X3134Y589D02*
X3134Y589D01*
X2039Y588D02*
X2069Y588D01*
X2117Y588D02*
X2147Y588D01*
X3097Y588D02*
X3097Y588D01*
X3134Y588D02*
X3134Y588D01*
X2039Y587D02*
X2069Y587D01*
X2117Y587D02*
X2147Y587D01*
X3097Y587D02*
X3097Y587D01*
X3133Y587D02*
X3134Y587D01*
X2039Y586D02*
X2069Y586D01*
X2117Y586D02*
X2147Y586D01*
X3097Y586D02*
X3098Y586D01*
X3133Y586D02*
X3134Y586D01*
X2039Y585D02*
X2069Y585D01*
X2116Y585D02*
X2147Y585D01*
X3097Y585D02*
X3098Y585D01*
X3132Y585D02*
X3134Y585D01*
X2039Y584D02*
X2069Y584D01*
X2116Y584D02*
X2147Y584D01*
X3097Y584D02*
X3099Y584D01*
X3132Y584D02*
X3134Y584D01*
X2039Y583D02*
X2069Y583D01*
X2116Y583D02*
X2147Y583D01*
X3097Y583D02*
X3099Y583D01*
X3131Y583D02*
X3134Y583D01*
X2039Y582D02*
X2070Y582D01*
X2116Y582D02*
X2147Y582D01*
X3097Y582D02*
X3100Y582D01*
X3130Y582D02*
X3134Y582D01*
X2039Y581D02*
X2070Y581D01*
X2115Y581D02*
X2147Y581D01*
X3097Y581D02*
X3101Y581D01*
X3129Y581D02*
X3134Y581D01*
X2039Y580D02*
X2070Y580D01*
X2115Y580D02*
X2147Y580D01*
X3097Y580D02*
X3102Y580D01*
X3128Y580D02*
X3134Y580D01*
X2039Y579D02*
X2071Y579D01*
X2115Y579D02*
X2147Y579D01*
X3097Y579D02*
X3103Y579D01*
X3127Y579D02*
X3134Y579D01*
X2039Y578D02*
X2071Y578D01*
X2114Y578D02*
X2147Y578D01*
X3097Y578D02*
X3105Y578D01*
X3126Y578D02*
X3134Y578D01*
X2039Y577D02*
X2072Y577D01*
X2113Y577D02*
X2147Y577D01*
X3097Y577D02*
X3106Y577D01*
X3124Y577D02*
X3134Y577D01*
X2039Y576D02*
X2072Y576D01*
X2113Y576D02*
X2147Y576D01*
X3097Y576D02*
X3109Y576D01*
X3122Y576D02*
X3134Y576D01*
X2039Y575D02*
X2073Y575D01*
X2112Y575D02*
X2147Y575D01*
X3097Y575D02*
X3111Y575D01*
X3120Y575D02*
X3133Y575D01*
X2039Y574D02*
X2074Y574D01*
X2111Y574D02*
X2147Y574D01*
X2039Y573D02*
X2075Y573D01*
X2110Y573D02*
X2147Y573D01*
X2039Y572D02*
X2076Y572D01*
X2109Y572D02*
X2147Y572D01*
X2039Y571D02*
X2077Y571D01*
X2108Y571D02*
X2147Y571D01*
X2039Y570D02*
X2078Y570D01*
X2107Y570D02*
X2147Y570D01*
X2039Y569D02*
X2080Y569D01*
X2106Y569D02*
X2147Y569D01*
X2039Y568D02*
X2082Y568D01*
X2104Y568D02*
X2147Y568D01*
X2039Y567D02*
X2084Y567D01*
X2102Y567D02*
X2147Y567D01*
X2039Y566D02*
X2087Y566D01*
X2098Y566D02*
X2147Y566D01*
X3097Y352D02*
X3110Y352D01*
X3120Y352D02*
X3134Y352D01*
X3097Y351D02*
X3107Y351D01*
X3123Y351D02*
X3134Y351D01*
X3097Y350D02*
X3105Y350D01*
X3125Y350D02*
X3134Y350D01*
X3097Y349D02*
X3104Y349D01*
X3127Y349D02*
X3134Y349D01*
X3097Y348D02*
X3103Y348D01*
X3128Y348D02*
X3134Y348D01*
X3097Y347D02*
X3101Y347D01*
X3129Y347D02*
X3134Y347D01*
X3097Y346D02*
X3101Y346D01*
X3130Y346D02*
X3134Y346D01*
X3097Y345D02*
X3100Y345D01*
X3131Y345D02*
X3134Y345D01*
X3097Y344D02*
X3099Y344D01*
X3132Y344D02*
X3134Y344D01*
X3097Y343D02*
X3098Y343D01*
X3132Y343D02*
X3134Y343D01*
X3097Y342D02*
X3098Y342D01*
X3133Y342D02*
X3134Y342D01*
X3097Y341D02*
X3097Y341D01*
X3133Y341D02*
X3134Y341D01*
X3097Y340D02*
X3097Y340D01*
X3133Y340D02*
X3134Y340D01*
X3097Y339D02*
X3097Y339D01*
X3134Y339D02*
X3134Y339D01*
X2039Y337D02*
X2087Y337D01*
X2098Y337D02*
X2146Y337D01*
X2039Y336D02*
X2085Y336D01*
X2100Y336D02*
X2147Y336D01*
X2039Y335D02*
X2082Y335D01*
X2103Y335D02*
X2147Y335D01*
X2039Y334D02*
X2080Y334D01*
X2105Y334D02*
X2147Y334D01*
X2039Y333D02*
X2079Y333D01*
X2107Y333D02*
X2147Y333D01*
X2039Y332D02*
X2078Y332D01*
X2108Y332D02*
X2147Y332D01*
X2039Y331D02*
X2076Y331D01*
X2109Y331D02*
X2147Y331D01*
X2039Y330D02*
X2075Y330D01*
X2110Y330D02*
X2147Y330D01*
X2039Y329D02*
X2074Y329D01*
X2111Y329D02*
X2147Y329D01*
X3097Y329D02*
X3097Y329D01*
X3134Y329D02*
X3134Y329D01*
X2039Y328D02*
X2074Y328D01*
X2112Y328D02*
X2147Y328D01*
X3097Y328D02*
X3097Y328D01*
X3134Y328D02*
X3134Y328D01*
X2039Y327D02*
X2073Y327D01*
X2113Y327D02*
X2147Y327D01*
X3097Y327D02*
X3097Y327D01*
X3133Y327D02*
X3134Y327D01*
X2039Y326D02*
X2072Y326D01*
X2113Y326D02*
X2147Y326D01*
X3097Y326D02*
X3098Y326D01*
X3133Y326D02*
X3134Y326D01*
X2039Y325D02*
X2072Y325D01*
X2114Y325D02*
X2147Y325D01*
X3097Y325D02*
X3098Y325D01*
X3132Y325D02*
X3134Y325D01*
X2039Y324D02*
X2071Y324D01*
X2114Y324D02*
X2147Y324D01*
X3097Y324D02*
X3099Y324D01*
X3132Y324D02*
X3134Y324D01*
X2039Y323D02*
X2070Y323D01*
X2115Y323D02*
X2147Y323D01*
X3097Y323D02*
X3100Y323D01*
X3131Y323D02*
X3134Y323D01*
X2039Y322D02*
X2070Y322D01*
X2115Y322D02*
X2147Y322D01*
X3097Y322D02*
X3100Y322D01*
X3130Y322D02*
X3134Y322D01*
X2039Y321D02*
X2070Y321D01*
X2116Y321D02*
X2147Y321D01*
X3097Y321D02*
X3101Y321D01*
X3129Y321D02*
X3134Y321D01*
X2039Y320D02*
X2069Y320D01*
X2116Y320D02*
X2147Y320D01*
X3097Y320D02*
X3102Y320D01*
X3128Y320D02*
X3134Y320D01*
X2039Y319D02*
X2069Y319D01*
X2116Y319D02*
X2147Y319D01*
X3097Y319D02*
X3103Y319D01*
X3127Y319D02*
X3134Y319D01*
X2039Y318D02*
X2069Y318D01*
X2116Y318D02*
X2147Y318D01*
X3097Y318D02*
X3105Y318D01*
X3126Y318D02*
X3134Y318D01*
X2039Y317D02*
X2069Y317D01*
X2117Y317D02*
X2147Y317D01*
X3097Y317D02*
X3107Y317D01*
X3124Y317D02*
X3134Y317D01*
X2039Y316D02*
X2069Y316D01*
X2117Y316D02*
X2147Y316D01*
X3097Y316D02*
X3109Y316D01*
X3121Y316D02*
X3134Y316D01*
X2039Y315D02*
X2069Y315D01*
X2117Y315D02*
X2147Y315D01*
X3097Y315D02*
X3134Y315D01*
X2039Y314D02*
X2069Y314D01*
X2117Y314D02*
X2147Y314D01*
X3097Y314D02*
X3134Y314D01*
X2039Y313D02*
X2069Y313D01*
X2117Y313D02*
X2147Y313D01*
X3097Y313D02*
X3134Y313D01*
X2039Y312D02*
X2069Y312D01*
X2117Y312D02*
X2147Y312D01*
X3097Y312D02*
X3134Y312D01*
X2039Y311D02*
X2069Y311D01*
X2117Y311D02*
X2147Y311D01*
X3097Y311D02*
X3134Y311D01*
X2039Y310D02*
X2069Y310D01*
X2117Y310D02*
X2147Y310D01*
X3097Y310D02*
X3134Y310D01*
X2039Y309D02*
X2069Y309D01*
X2116Y309D02*
X2147Y309D01*
X3097Y309D02*
X3134Y309D01*
X2039Y308D02*
X2069Y308D01*
X2116Y308D02*
X2147Y308D01*
X3097Y308D02*
X3134Y308D01*
X2039Y307D02*
X2069Y307D01*
X2116Y307D02*
X2147Y307D01*
X3097Y307D02*
X3134Y307D01*
X2039Y306D02*
X2070Y306D01*
X2116Y306D02*
X2147Y306D01*
X3097Y306D02*
X3134Y306D01*
X2039Y305D02*
X2070Y305D01*
X2115Y305D02*
X2147Y305D01*
X3097Y305D02*
X3134Y305D01*
X2039Y304D02*
X2071Y304D01*
X2115Y304D02*
X2147Y304D01*
X3097Y304D02*
X3134Y304D01*
X2039Y303D02*
X2071Y303D01*
X2114Y303D02*
X2147Y303D01*
X3097Y303D02*
X3134Y303D01*
X2039Y302D02*
X2072Y302D01*
X2114Y302D02*
X2147Y302D01*
X3097Y302D02*
X3134Y302D01*
X2039Y301D02*
X2072Y301D01*
X2113Y301D02*
X2147Y301D01*
X3097Y301D02*
X3134Y301D01*
X2039Y300D02*
X2073Y300D01*
X2113Y300D02*
X2147Y300D01*
X3097Y300D02*
X3134Y300D01*
X2039Y299D02*
X2074Y299D01*
X2112Y299D02*
X2147Y299D01*
X3097Y299D02*
X3134Y299D01*
X2039Y298D02*
X2074Y298D01*
X2111Y298D02*
X2147Y298D01*
X3097Y298D02*
X3134Y298D01*
X2039Y297D02*
X2075Y297D01*
X2110Y297D02*
X2147Y297D01*
X3097Y297D02*
X3134Y297D01*
X2039Y296D02*
X2076Y296D01*
X2109Y296D02*
X2147Y296D01*
X2039Y295D02*
X2078Y295D01*
X2108Y295D02*
X2147Y295D01*
X2039Y294D02*
X2079Y294D01*
X2107Y294D02*
X2147Y294D01*
X2039Y293D02*
X2081Y293D01*
X2105Y293D02*
X2147Y293D01*
X2039Y292D02*
X2082Y292D01*
X2103Y292D02*
X2147Y292D01*
X2039Y291D02*
X2085Y291D01*
X2100Y291D02*
X2147Y291D01*
X2039Y290D02*
X2087Y290D01*
X2098Y290D02*
X2146Y290D01*
D02*
G04 End of Copper1*
M02*